<?xml version="1.0" encoding="utf-8"?>
<!-- Generator: Adobe Illustrator 24.0.3, SVG Export Plug-In . SVG Version: 6.00 Build 0)  -->
<svg version="1.1" id="Layer_1" xmlns="http://www.w3.org/2000/svg" xmlns:xlink="http://www.w3.org/1999/xlink" x="0px" y="0px"
	 viewBox="0 0 160 73" style="enable-background:new 0 0 160 73;" xml:space="preserve">
<style type="text/css">
	.st0{fill:#A42434;}
</style>
<path class="st0" d="M160.39,21.19H88.65c-0.23,0-0.43,0.13-0.54,0.33c-0.1,0.2,0,2.66,6.58,9.62c4.61,4.87,8.98,6.87,13.04,6.34
	c2.29-0.31,3.57-1.4,4.1-2.13c0.53-0.68,0.82-1.45,0.85-2.09c0.05-0.85-0.33-1.76-1.1-2.41c-1.24-1.05-3.02-0.98-3.97,0.14
	c-0.81,0.95-0.76,2.36,0.03,3.41c0.04-0.13,0.1-0.25,0.19-0.37c0.37-0.43,1.05-0.45,1.53-0.06c0.68,0.57,0.42,2.38-1.39,2.63
	c-2.87,0.39-6.18-0.01-10.47-3.96c-2.4-2.2-6.17-6.45-6.17-8.39s3.27-1.83,3.27-1.83h21.47c2.73,0.72,9.3,2.76,13.3,6.76
	c3.99-4,10.56-6.04,13.29-6.76h17.73c0.33,0,0.6-0.27,0.6-0.61C161,21.46,160.72,21.19,160.39,21.19"/>
<path class="st0" d="M67.96,40.02c4.18,5.57,8.31,0.82,9.26,1.27c0.96,0.44,0.14,1.15-0.62,2.45c-0.77,1.3-0.44,2.49,1.3,4.02
	c1.73,1.51,2.81,4.88,2.81,4.88s1.08-3.36,2.83-4.88c1.73-1.53,2.07-2.72,1.3-4.02c-0.76-1.3-1.59-2.01-0.62-2.45
	c0.93-0.45,5.06,4.3,9.26-1.27c0,0-2.98,0.66-4.47-1.44c-0.95-1.34-0.95-7.08-5.89-7.71c1.49,0.85,2.51,2.43,2.51,4.27
	c0,2.71-2.2,4.91-4.92,4.91c-2.72,0-4.9-2.2-4.9-4.91c0-1.84,1.01-3.42,2.51-4.27c-4.95,0.63-4.94,6.37-5.9,7.71
	C70.93,40.69,67.96,40.02,67.96,40.02"/>
<path class="st0" d="M73.31,21.51c-0.1-0.2-0.3-0.33-0.52-0.33H1.05c-0.34,0-0.62,0.27-0.62,0.62c0,0.34,0.28,0.61,0.62,0.61h17.72
	c2.72,0.72,9.29,2.76,13.3,6.76c3.99-4,10.56-6.04,13.29-6.76h21.47c0,0,3.27-0.12,3.27,1.83s-3.76,6.19-6.18,8.39
	c-4.28,3.96-7.59,4.36-10.45,3.97c-1.82-0.25-2.1-2.06-1.41-2.63c0.49-0.39,1.19-0.37,1.54,0.06c0.09,0.12,0.14,0.23,0.18,0.37
	c0.79-1.04,0.84-2.45,0.05-3.41c-0.96-1.12-2.74-1.19-3.97-0.14c-0.78,0.66-1.17,1.56-1.11,2.41c0.04,0.64,0.33,1.41,0.83,2.09
	c0.54,0.73,1.83,1.82,4.12,2.13C57.75,38,62.14,36,66.75,31.13C73.31,24.17,73.43,21.71,73.31,21.51"/>
<path class="st0" d="M80.7,34.97c0.35,0,0.62-0.22,0.62-0.5v-8.23c1.74-0.3,3.08-1.8,3.08-3.62c0-2.03-1.65-3.68-3.7-3.68
	c-2.02,0-3.68,1.65-3.68,3.68c0,1.83,1.33,3.33,3.07,3.62v8.23C80.1,34.75,80.38,34.97,80.7,34.97"/>
</svg>
