<?xml version="1.0" encoding="utf-8"?>
<!-- Generator: Adobe Illustrator 24.0.3, SVG Export Plug-In . SVG Version: 6.00 Build 0)  -->
<svg version="1.1" id="Layer_1" xmlns="http://www.w3.org/2000/svg" xmlns:xlink="http://www.w3.org/1999/xlink" x="0px" y="0px"
	 viewBox="0 0 800 600" style="enable-background:new 0 0 800 600;" xml:space="preserve">
<style type="text/css">
	.st0{fill:#A42434;}
	.st1{fill:none;stroke:#A42434;}
</style>
<path class="st0" d="M45.82,567.86c-0.95,0-1.88-0.07-2.81-0.18c1.59-4.71,2.27-9.38,2.56-12.74c0.55,0.1,1.12,0.15,1.71,0.15
	c0.4,0,0.76-0.07,1.15-0.12c-0.28,4.01-0.7,8.57-1.32,12.82C46.68,567.83,46.25,567.86,45.82,567.86 M54.36,565.81
	c-1.14,0.58-2.34,1.03-3.59,1.38c-0.58-4.16-0.98-8.57-1.25-12.43c1-0.27,1.94-0.71,2.76-1.31
	C52.46,556.44,52.98,561.01,54.36,565.81 M52.47,552.02c-0.09-0.69-0.2-1.35-0.28-2.09c0,0-0.03,0.86,0.03,2.32
	c-0.81,0.7-1.74,1.22-2.77,1.53c-0.23-3.49-0.36-6.43-0.42-8.21c1.85-0.05,3.34-1.62,3.34-3.57c0-0.6-0.16-1.17-0.41-1.66
	c1.87,1.12,3.14,3.19,3.14,5.6C55.11,548.35,54.08,550.52,52.47,552.02 M65.63,547.14c0,7.32-3.66,13.75-9.15,17.43
	c-1.58-2.71-3.02-6.37-3.85-11.43c2.08-1.68,3.43-4.27,3.43-7.22c0-3.68-2.58-6.72-5.97-7.3c-0.36-0.13-0.75-0.22-1.16-0.22
	c-1.89,0-3.44,1.6-3.44,3.59c0,1.97,1.53,3.57,3.43,3.58c-0.06,1.82-0.19,4.85-0.44,8.43c-0.39,0.07-0.8,0.13-1.21,0.13
	c-0.56,0-1.09-0.08-1.63-0.17c0.18-2.47,0.13-4.04,0.13-4.04c-0.14,1.42-0.35,2.72-0.58,3.97c-4.47-1-7.82-5.17-7.82-10.13
	c0-7.22,5.6-13.09,12.5-13.09C58.56,530.67,65.63,538.07,65.63,547.14 M41.02,568.34c-0.98,2.4-2.21,4.73-3.81,6.84
	c0.05-0.96,0.07-1.35-0.16-2.52C38.69,571.81,39.78,570.17,41.02,568.34L41.02,568.34z M47.28,579.74c0.09-2.67,1.71-8.42,1.71-8.42
	s1.62,5.76,1.71,8.42c0.08,2.67-1.71,2.58-1.71,2.58S47.19,582.42,47.28,579.74 M60.76,575.18c-1.6-2.11-2.85-4.47-3.83-6.88
	c1.24,1.86,2.34,3.51,3.99,4.35C60.68,573.82,60.7,574.22,60.76,575.18 M19.95,286.74l0.03,255.11c0,12.45,8.15,22.93,19.16,26.02
	c-2.73,3.08-5.21,3.77-5.21,3.77s2.74,6.23-2.21,11.57c5.57-3.4,8.95-8.98,10.99-14.61c1.03,0.13,2.06,0.22,3.12,0.22
	c0.39,0,0.76-0.04,1.14-0.06c-0.95,6.19-2.34,11.55-4.37,13.2c5.67,3.57,6.39,17.01,6.39,17.01s0.73-13.44,6.4-17.01
	c-2.09-1.71-3.52-7.37-4.47-13.83c1.3-0.35,2.55-0.81,3.73-1.4c1.95,6.23,5.41,12.71,11.61,16.48c-4.95-5.34-2.22-11.57-2.22-11.57
	s-3.73-1.06-7.06-6.25c5.17-3.46,8.79-9.24,9.48-15.92c0.62,0.96,1.66,1.57,2.85,1.57c1.89,0,3.43-1.61,3.43-3.59
	c0-1.48-0.86-2.76-2.09-3.3c0,0-0.38,1.69-2.16,1.42c-2.31-0.33-3.05-6.59,4.79-8.09c0,0-4.52-0.4-6.83,1.7
	c-0.55,0.5-0.89,1-1.09,1.43c-2.48-6.38-8.48-10.9-15.48-10.9c-7.42,0-13.46,6.29-13.46,14.05c0,5.43,3.69,9.98,8.6,11.08
	c-1.21,5.84-3.21,9.69-5.21,12.22c-10.82-2.82-18.86-13.04-18.86-25.2c0,0-0.29-10.09,4.95-12.63c-2.58-1.46-4.13-4.91-4.99-7.66
	V286.74H19.95z"/>
<path class="st0" d="M43.01,33.53c0.92-0.11,1.85-0.18,2.8-0.18c0.43,0,0.86,0.04,1.29,0.07c0.62,4.26,1.04,8.82,1.32,12.82
	c-0.39-0.05-0.76-0.12-1.15-0.12c-0.59,0-1.15,0.05-1.71,0.15C45.28,42.91,44.6,38.24,43.01,33.53 M50.77,34.03
	c1.25,0.34,2.45,0.8,3.59,1.37c-1.38,4.8-1.9,9.37-2.08,12.37c-0.82-0.6-1.76-1.04-2.76-1.31C49.8,42.6,50.19,38.19,50.77,34.03
	 M52.19,51.29c0.08-0.74,0.18-1.4,0.28-2.09c1.61,1.5,2.64,3.67,2.64,6.09c0,2.41-1.27,4.48-3.14,5.59
	c0.25-0.49,0.41-1.05,0.41-1.66c0-1.94-1.49-3.52-3.34-3.57c0.06-1.78,0.19-4.72,0.42-8.21c1.03,0.32,1.96,0.84,2.77,1.53
	C52.16,50.43,52.19,51.29,52.19,51.29 M56.48,36.64c5.49,3.68,9.15,10.11,9.15,17.43c0,9.08-7.07,16.47-15.76,16.47
	c-6.89,0-12.5-5.88-12.5-13.09c0-4.96,3.35-9.13,7.82-10.13c0.22,1.25,0.43,2.54,0.57,3.97c0,0,0.04-1.56-0.13-4.03
	c0.54-0.09,1.08-0.17,1.63-0.17c0.42,0,0.82,0.06,1.21,0.13c0.24,3.58,0.37,6.61,0.44,8.43c-1.9,0.01-3.43,1.61-3.43,3.58
	c0,1.99,1.55,3.58,3.44,3.58c0.41,0,0.79-0.08,1.16-0.22c3.38-0.58,5.97-3.62,5.97-7.3c0-2.95-1.36-5.54-3.43-7.22
	C53.47,43.01,54.91,39.34,56.48,36.64 M41.01,32.87c-1.23-1.83-2.32-3.47-3.96-4.31c0.23-1.17,0.21-1.56,0.16-2.52
	C38.81,28.14,40.04,30.48,41.01,32.87L41.01,32.87z M48.98,29.9c0,0-1.62-5.76-1.71-8.42c-0.09-2.67,1.71-2.58,1.71-2.58
	s1.79-0.09,1.7,2.58C50.6,24.14,48.98,29.9,48.98,29.9 M56.93,32.91c0.98-2.41,2.23-4.77,3.83-6.88c-0.05,0.96-0.08,1.35,0.16,2.52
	C59.27,29.4,58.16,31.05,56.93,32.91 M20.9,292.47l0-212.82c0.85-2.75,2.4-6.2,4.99-7.66c-5.24-2.54-4.95-12.63-4.95-12.63
	c0.01-12.16,8.05-22.38,18.86-25.2c2,2.52,4,6.38,5.21,12.22c-4.9,1.1-8.6,5.64-8.6,11.08c0,7.75,6.04,14.05,13.46,14.05
	c7,0,13-4.52,15.48-10.9c0.2,0.42,0.53,0.92,1.09,1.43c2.31,2.1,6.83,1.7,6.83,1.7c-7.84-1.5-7.1-7.76-4.79-8.09
	c1.79-0.27,2.16,1.42,2.16,1.42c1.23-0.54,2.09-1.82,2.09-3.3c0-1.98-1.54-3.59-3.43-3.59c-1.18,0-2.24,0.62-2.85,1.57
	c-0.68-6.68-4.3-12.46-9.48-15.92c3.33-5.19,7.06-6.25,7.06-6.25S61.31,23.34,66.26,18c-6.2,3.77-9.66,10.24-11.61,16.48
	c-1.18-0.59-2.43-1.05-3.73-1.4c0.95-6.46,2.37-12.12,4.47-13.83c-5.67-3.56-6.39-17.01-6.39-17.01s-0.73,13.44-6.4,17.01
	c2.02,1.65,3.41,7.01,4.37,13.2c-0.37-0.02-0.75-0.06-1.14-0.06c-1.06,0-2.09,0.09-3.12,0.22C40.66,26.98,37.29,21.4,31.71,18
	c4.95,5.34,2.21,11.57,2.21,11.57s2.48,0.69,5.21,3.77c-11.01,3.09-19.16,13.57-19.16,26.02l-0.03,233.11H20.9z"/>
<path class="st0" d="M37.87,289.1c0-0.16-0.11-0.3-0.25-0.3h-4.07c-0.15-0.86-0.89-1.52-1.79-1.52c-1.01,0-1.82,0.82-1.82,1.82
	c0,1.01,0.81,1.83,1.82,1.83c0.9,0,1.65-0.66,1.79-1.52h4.07C37.76,289.41,37.87,289.28,37.87,289.1 M31.21,285.44
	c0.1,0.06,1.32,0,4.76-3.25c2.41-2.28,3.4-4.45,3.14-6.45c-0.16-1.13-0.7-1.77-1.06-2.04c-0.34-0.25-0.72-0.39-1.04-0.41
	c-0.42-0.03-0.87,0.16-1.19,0.55c-0.52,0.61-0.49,1.49,0.07,1.96c0.47,0.39,1.17,0.37,1.69-0.02c-0.07-0.02-0.12-0.05-0.18-0.09
	c-0.21-0.18-0.22-0.52-0.03-0.76c0.28-0.34,1.18-0.2,1.31,0.7c0.19,1.41-0.01,3.05-1.96,5.17c-1.09,1.19-3.19,3.05-4.15,3.05
	c-0.96,0-0.9-1.62-0.9-1.62v-10.63c0.36-1.35,1.36-4.6,3.35-6.58c-1.98-1.99-2.99-5.24-3.35-6.58v-8.77c0-0.17-0.13-0.3-0.3-0.3
	c-0.17,0-0.31,0.14-0.31,0.3v35.51C31.05,285.29,31.11,285.39,31.21,285.44 M40.37,282.79c0,0,0.33,1.47-0.71,2.21
	c-0.66,0.47-3.5,0.47-3.82,2.92c0.42-0.74,1.2-1.24,2.11-1.24c1.34,0,2.43,1.08,2.43,2.42c0,1.35-1.09,2.44-2.43,2.44
	c-0.91,0-1.69-0.51-2.11-1.24c0.31,2.45,3.15,2.45,3.82,2.92c1.04,0.74,0.71,2.21,0.71,2.21c2.76-2.08,0.41-4.12,0.63-4.58
	c0.22-0.48,0.57-0.07,1.21,0.31c0.64,0.38,1.23,0.21,1.99-0.64c0.75-0.86,2.42-1.4,2.42-1.4s-1.66-0.53-2.42-1.39
	c-0.76-0.86-1.34-1.03-1.99-0.64c-0.64,0.37-0.99,0.78-1.21,0.31C40.78,286.91,43.13,284.86,40.37,282.79 M31.05,328.54
	c0,0.16,0.14,0.3,0.31,0.3c0.17,0,0.3-0.14,0.3-0.3v-8.77c0.36-1.35,1.36-4.6,3.35-6.58c-1.98-1.98-2.99-5.23-3.35-6.58v-10.63
	c0,0-0.06-1.62,0.9-1.62c0.96,0,3.06,1.86,4.15,3.05c1.96,2.12,2.15,3.76,1.96,5.18c-0.13,0.89-1.02,1.02-1.31,0.69
	c-0.19-0.24-0.18-0.58,0.03-0.76c0.06-0.05,0.12-0.07,0.18-0.09c-0.52-0.39-1.22-0.42-1.69-0.01c-0.56,0.47-0.59,1.35-0.07,1.96
	c0.33,0.38,0.77,0.57,1.19,0.54c0.32-0.01,0.7-0.15,1.04-0.42c0.36-0.26,0.9-0.9,1.06-2.03c0.26-2.01-0.73-4.17-3.14-6.45
	c-3.44-3.26-4.66-3.31-4.76-3.26c-0.1,0.06-0.16,0.16-0.16,0.27V328.54"/>
<line class="st1" x1="26.31" y1="100.23" x2="26.31" y2="501.99"/>
<path class="st0" d="M33.98,570.57c-1.4-0.39-2.67-0.9-3.97-1.51c-9.1-4.3-15.45-13.8-15.45-24.83l-0.03-250.02h0.97V523.7
	c0,3.02,0.04,20.53,0.04,20.53c0,10.47,5.93,19.53,14.49,23.76c1.5,0.74,3.3,1.45,4.94,1.87"/>
<path class="st0" d="M34.29,30.63c-1.4,0.39-2.67,0.9-3.97,1.51c-9.1,4.3-15.45,13.8-15.45,24.83l-0.03,228.34h0.97V77.51
	c0-3.02,0.04-20.53,0.04-20.53c0-10.48,5.93-19.53,14.49-23.75c1.5-0.74,3.3-1.45,4.94-1.87"/>
<path class="st0" d="M15.19,288.7c0,0-6.23,0-8.5-6.76c1.61-1.27,2.48-4.29,2.48-4.29S7.23,287.03,15.19,288.7"/>
<path class="st0" d="M15.19,289.52c-7.96,1.67-6.02,11.05-6.02,11.05s-0.87-3.01-2.48-4.29C8.97,289.52,15.19,289.52,15.19,289.52"
	/>
<path class="st0" d="M10.34,289.11c0,0-4.28-0.8-5.56-2.74c0.81-1.4,1.07-2.81,1.07-2.81s0.76,5.16,9.3,5.56
	c-8.54,0.39-9.3,5.56-9.3,5.56s-0.27-1.41-1.07-2.81C6.05,289.91,10.34,289.11,10.34,289.11"/>
<path class="st0" d="M7.11,289.11c0,0-1.95,0.39-3.02,1.46c-1.06-1.07-3.02-1.46-3.02-1.46s1.95-0.4,3.02-1.46
	C5.16,288.71,7.11,289.11,7.11,289.11"/>
<g>
	<path class="st0" d="M752.79,567.73c-0.43,0-0.86-0.04-1.29-0.07c-0.61-4.26-1.03-8.82-1.32-12.82c0.39,0.05,0.76,0.12,1.15,0.12
		c0.59,0,1.15-0.05,1.71-0.15c0.29,3.36,0.97,8.03,2.56,12.74C754.67,567.66,753.74,567.73,752.79,567.73 M744.25,565.68
		c1.39-4.8,1.9-9.37,2.08-12.37c0.82,0.6,1.76,1.04,2.76,1.31c-0.27,3.87-0.67,8.27-1.25,12.43
		C746.59,566.71,745.39,566.25,744.25,565.68 M746.14,551.89c-1.61-1.5-2.64-3.66-2.64-6.09c0-2.41,1.27-4.48,3.14-5.6
		c-0.25,0.49-0.41,1.06-0.41,1.66c0,1.95,1.49,3.52,3.34,3.57c-0.06,1.78-0.19,4.72-0.42,8.21c-1.03-0.32-1.96-0.83-2.77-1.53
		c0.06-1.46,0.03-2.32,0.03-2.32C746.34,550.54,746.24,551.2,746.14,551.89 M732.98,547.01c0-9.08,7.07-16.47,15.76-16.47
		c6.89,0,12.5,5.88,12.5,13.09c0,4.97-3.35,9.13-7.82,10.13c-0.23-1.25-0.43-2.54-0.58-3.97c0,0-0.04,1.56,0.13,4.03
		c-0.54,0.09-1.08,0.17-1.63,0.17c-0.42,0-0.82-0.06-1.22-0.13c-0.24-3.58-0.37-6.61-0.44-8.43c1.9-0.01,3.43-1.61,3.43-3.58
		c0-1.99-1.55-3.59-3.44-3.59c-0.41,0-0.79,0.09-1.16,0.22c-3.38,0.58-5.97,3.62-5.97,7.3c0,2.95,1.36,5.54,3.43,7.22
		c-0.84,5.05-2.28,8.72-3.85,11.43C736.64,560.76,732.98,554.33,732.98,547.01 M757.6,568.21c1.23,1.83,2.32,3.47,3.96,4.31
		c-0.23,1.17-0.21,1.56-0.16,2.52C759.8,572.94,758.57,570.61,757.6,568.21L757.6,568.21z M751.33,579.61
		c0.09,2.67-1.71,2.58-1.71,2.58s-1.79,0.09-1.71-2.58c0.09-2.67,1.71-8.42,1.71-8.42S751.24,576.94,751.33,579.61 M737.85,575.05
		c0.05-0.96,0.08-1.35-0.16-2.52c1.64-0.84,2.75-2.49,3.99-4.35C740.71,570.58,739.46,572.94,737.85,575.05 M777.71,286.61v234.82
		c-0.85,2.75-2.4,6.2-4.99,7.66c5.24,2.54,4.96,12.63,4.96,12.63c-0.01,12.16-8.05,22.38-18.86,25.2c-2-2.52-4-6.38-5.21-12.22
		c4.9-1.1,8.6-5.65,8.6-11.08c0-7.75-6.04-14.04-13.46-14.04c-7,0-13,4.52-15.48,10.9c-0.2-0.42-0.53-0.92-1.09-1.43
		c-2.31-2.1-6.83-1.7-6.83-1.7c7.84,1.49,7.1,7.76,4.79,8.09c-1.79,0.27-2.16-1.42-2.16-1.42c-1.23,0.54-2.09,1.82-2.09,3.3
		c0,1.98,1.54,3.59,3.43,3.59c1.18,0,2.23-0.62,2.85-1.57c0.68,6.68,4.31,12.46,9.48,15.92c-3.34,5.19-7.06,6.25-7.06,6.25
		s2.74,6.23-2.22,11.57c6.2-3.77,9.67-10.24,11.61-16.48c1.18,0.59,2.43,1.05,3.73,1.4c-0.95,6.46-2.37,12.12-4.47,13.83
		c5.67,3.57,6.4,17.01,6.4,17.01s0.72-13.44,6.39-17.01c-2.03-1.65-3.42-7.01-4.37-13.2c0.38,0.02,0.75,0.06,1.14,0.06
		c1.06,0,2.09-0.09,3.12-0.22c2.04,5.63,5.41,11.21,10.99,14.61c-4.95-5.34-2.21-11.57-2.21-11.57s-2.48-0.69-5.21-3.77
		c11.01-3.09,19.16-13.57,19.16-26.02l0.03-255.11H777.71z"/>
	<path class="st0" d="M755.6,33.4c-1.59,4.71-2.27,9.38-2.56,12.75c-0.55-0.1-1.12-0.15-1.71-0.15c-0.4,0-0.77,0.06-1.15,0.12
		c0.28-4,0.7-8.56,1.32-12.82c0.43-0.03,0.86-0.07,1.29-0.07C753.74,33.22,754.67,33.29,755.6,33.4 M747.84,33.9
		c0.58,4.16,0.98,8.56,1.25,12.43c-1,0.27-1.94,0.71-2.76,1.31c-0.18-3-0.69-7.57-2.08-12.37C745.39,34.7,746.59,34.24,747.84,33.9
		 M746.42,51.16c0,0,0.03-0.86-0.03-2.31c0.8-0.7,1.74-1.22,2.77-1.53c0.23,3.49,0.36,6.43,0.42,8.21
		c-1.85,0.05-3.34,1.63-3.34,3.57c0,0.6,0.16,1.17,0.41,1.66c-1.87-1.11-3.14-3.18-3.14-5.59c0-2.42,1.03-4.59,2.64-6.09
		C746.24,49.75,746.34,50.42,746.42,51.16 M742.13,36.51c1.58,2.71,3.01,6.37,3.85,11.43c-2.08,1.68-3.43,4.27-3.43,7.22
		c0,3.68,2.58,6.72,5.97,7.3c0.36,0.13,0.75,0.22,1.16,0.22c1.89,0,3.44-1.6,3.44-3.58c0-1.97-1.53-3.57-3.43-3.58
		c0.06-1.82,0.19-4.85,0.44-8.43c0.4-0.07,0.8-0.13,1.22-0.13c0.56,0,1.09,0.08,1.63,0.17c-0.17,2.47-0.13,4.03-0.13,4.03
		c0.14-1.42,0.35-2.72,0.57-3.97c4.47,1,7.82,5.17,7.82,10.13c0,7.22-5.6,13.09-12.5,13.09c-8.69,0-15.76-7.4-15.76-16.47
		C732.98,46.62,736.64,40.19,742.13,36.51 M757.59,32.74c0.98-2.4,2.21-4.73,3.81-6.83c-0.05,0.96-0.08,1.35,0.16,2.52
		C759.92,29.27,758.83,30.91,757.59,32.74L757.59,32.74z M749.63,29.76c0,0-1.62-5.76-1.7-8.42c-0.09-2.67,1.7-2.58,1.7-2.58
		s1.8-0.09,1.71,2.58C751.24,24.01,749.63,29.76,749.63,29.76 M741.68,32.78c-1.24-1.86-2.34-3.51-3.99-4.35
		c0.23-1.17,0.21-1.56,0.16-2.52C739.46,28.01,740.71,30.37,741.68,32.78 M778.66,292.34l-0.03-233.11
		c0-12.45-8.15-22.93-19.16-26.02c2.73-3.07,5.21-3.77,5.21-3.77s-2.74-6.23,2.21-11.57c-5.57,3.4-8.95,8.98-10.99,14.61
		c-1.03-0.13-2.06-0.22-3.12-0.22c-0.39,0-0.77,0.04-1.14,0.06c0.95-6.19,2.34-11.55,4.37-13.2c-5.67-3.56-6.4-17.01-6.4-17.01
		s-0.73,13.44-6.39,17.01c2.09,1.71,3.51,7.37,4.47,13.83c-1.3,0.35-2.55,0.81-3.73,1.4c-1.95-6.24-5.41-12.71-11.61-16.48
		c4.95,5.34,2.22,11.57,2.22,11.57s3.73,1.06,7.06,6.25c-5.17,3.46-8.79,9.24-9.48,15.92c-0.62-0.96-1.67-1.57-2.85-1.57
		c-1.89,0-3.43,1.61-3.43,3.59c0,1.48,0.86,2.76,2.09,3.3c0,0,0.38-1.69,2.16-1.42c2.31,0.34,3.05,6.6-4.79,8.09
		c0,0,4.52,0.4,6.83-1.7c0.55-0.5,0.89-1,1.09-1.43c2.48,6.38,8.48,10.9,15.48,10.9c7.42,0,13.46-6.29,13.46-14.05
		c0-5.43-3.69-9.98-8.6-11.08c1.21-5.84,3.21-9.69,5.21-12.22c10.81,2.82,18.86,13.04,18.86,25.2c0,0,0.29,10.09-4.96,12.63
		c2.59,1.46,4.14,4.91,4.99,7.66v212.82H778.66z"/>
	<path class="st0" d="M760.74,288.97c0,0.17,0.11,0.3,0.25,0.3h4.07c0.15,0.86,0.89,1.53,1.79,1.53c1.01,0,1.82-0.82,1.82-1.83
		c0-1-0.81-1.82-1.82-1.82c-0.91,0-1.65,0.66-1.79,1.52h-4.07C760.85,288.67,760.74,288.81,760.74,288.97 M767.4,285.31
		c0.1-0.05,0.16-0.15,0.16-0.25v-35.51c0-0.17-0.14-0.3-0.31-0.3c-0.17,0-0.3,0.14-0.3,0.3v8.77c-0.36,1.35-1.36,4.6-3.35,6.58
		c1.98,1.97,2.99,5.23,3.35,6.58v10.63c0,0,0.06,1.62-0.9,1.62c-0.96,0-3.06-1.86-4.15-3.05c-1.96-2.12-2.16-3.76-1.96-5.17
		c0.13-0.9,1.02-1.04,1.3-0.7c0.19,0.24,0.18,0.59-0.03,0.76c-0.06,0.04-0.12,0.07-0.18,0.09c0.52,0.39,1.22,0.42,1.69,0.02
		c0.56-0.48,0.59-1.36,0.07-1.96c-0.33-0.39-0.77-0.58-1.2-0.55c-0.32,0.02-0.7,0.16-1.03,0.41c-0.36,0.27-0.9,0.9-1.06,2.04
		c-0.26,2,0.73,4.17,3.14,6.45C766.09,285.31,767.3,285.37,767.4,285.31 M758.24,282.66c-2.76,2.07-0.41,4.11-0.63,4.58
		c-0.22,0.48-0.57,0.07-1.21-0.31c-0.64-0.38-1.23-0.22-1.99,0.64c-0.75,0.86-2.42,1.39-2.42,1.39s1.66,0.54,2.42,1.4
		c0.76,0.85,1.34,1.02,1.99,0.64c0.64-0.38,0.99-0.79,1.21-0.31c0.22,0.46-2.13,2.51,0.63,4.58c0,0-0.33-1.48,0.71-2.21
		c0.66-0.47,3.5-0.47,3.82-2.91c-0.42,0.74-1.2,1.24-2.11,1.24c-1.34,0-2.43-1.09-2.43-2.44c0-1.35,1.09-2.43,2.43-2.43
		c0.91,0,1.69,0.5,2.11,1.24c-0.31-2.45-3.15-2.44-3.82-2.92C757.91,284.13,758.24,282.66,758.24,282.66 M767.56,328.41V292.9
		c0-0.11-0.06-0.21-0.16-0.27c-0.1-0.05-1.32,0-4.76,3.26c-2.41,2.28-3.4,4.44-3.14,6.45c0.16,1.13,0.7,1.77,1.06,2.03
		c0.34,0.27,0.72,0.41,1.03,0.42c0.42,0.03,0.87-0.16,1.2-0.54c0.52-0.61,0.49-1.49-0.07-1.96c-0.47-0.4-1.17-0.38-1.69,0.02
		c0.07,0.02,0.12,0.05,0.18,0.09c0.21,0.18,0.22,0.52,0.03,0.76c-0.28,0.34-1.18,0.21-1.3-0.69c-0.19-1.42,0.01-3.05,1.96-5.18
		c1.09-1.19,3.19-3.05,4.15-3.05c0.96,0,0.9,1.62,0.9,1.62v10.63c-0.36,1.35-1.36,4.6-3.35,6.58c1.98,1.97,2.99,5.22,3.35,6.58v8.77
		c0,0.16,0.13,0.3,0.3,0.3C767.43,328.71,767.56,328.57,767.56,328.41"/>
	<line class="st1" x1="772.3" y1="100.1" x2="772.3" y2="501.86"/>
	<path class="st0" d="M764.63,570.44c1.4-0.39,2.67-0.9,3.97-1.51c9.1-4.3,15.45-13.8,15.45-24.83l0.03-250.02h-0.97v229.49
		c0,3.02-0.04,20.53-0.04,20.53c0,10.47-5.93,19.53-14.49,23.76c-1.5,0.74-3.3,1.45-4.94,1.87"/>
	<path class="st0" d="M764.32,30.5c1.4,0.39,2.67,0.9,3.97,1.51c9.1,4.3,15.45,13.8,15.45,24.83l0.03,228.34h-0.97V77.38
		c0-3.02-0.04-20.53-0.04-20.53c0-10.48-5.93-19.53-14.49-23.75c-1.5-0.74-3.3-1.45-4.94-1.87"/>
	<path class="st0" d="M783.42,288.57c0,0,6.23,0,8.5-6.76c-1.61-1.27-2.48-4.29-2.48-4.29S791.38,286.9,783.42,288.57"/>
	<path class="st0" d="M783.42,289.39c7.96,1.67,6.02,11.05,6.02,11.05s0.87-3.01,2.48-4.29
		C789.64,289.39,783.42,289.39,783.42,289.39"/>
	<path class="st0" d="M788.27,288.98c0,0,4.28-0.8,5.56-2.74c-0.81-1.4-1.07-2.81-1.07-2.81s-0.76,5.16-9.3,5.56
		c8.54,0.4,9.3,5.56,9.3,5.56s0.27-1.41,1.07-2.81C792.56,289.78,788.27,288.98,788.27,288.98"/>
	<path class="st0" d="M791.5,288.98c0,0,1.95,0.4,3.02,1.46c1.06-1.07,3.02-1.46,3.02-1.46s-1.95-0.4-3.02-1.46
		C793.45,288.58,791.5,288.98,791.5,288.98"/>
</g>
</svg>
